<svg aria-hidden="true" style="position: absolute; width: 0; height: 0; overflow: hidden;" version="1.1" xmlns="http://www.w3.org/2000/svg" xmlns:xlink="http://www.w3.org/1999/xlink">
<defs>
<symbol id="arrow-down" viewBox="0 0 32 32">
<path fill="#00d7ff" style="fill: var(--color1, #00d7ff)" d="M16 22.667l-13.856-12h27.712l-13.856 12z"></path>
</symbol>
<symbol id="arrow-up" viewBox="0 0 32 32">
<path fill="#00d7ff" style="fill: var(--color1, #00d7ff)" d="M16 9.333l13.856 12h-27.712l13.856-12z"></path>
</symbol>
<symbol id="button-go" viewBox="0 0 32 32">
<path fill="#ff851c" style="fill: var(--color2, #ff851c)" d="M28.235 16c0 6.757-5.478 12.235-12.235 12.235s-12.235-5.478-12.235-12.235c0-6.757 5.478-12.235 12.235-12.235s12.235 5.478 12.235 12.235z"></path>
<path fill="#fff" style="fill: var(--color3, #fff)" d="M13.734 12.996v5.218c0 0.956-0.237 1.656-0.712 2.101-0.474 0.452-1.193 0.678-2.157 0.678-1.664 0-2.575-0.606-2.733-1.818h1.592c0.060 0.264 0.184 0.452 0.373 0.565 0.188 0.12 0.456 0.181 0.802 0.181 0.504 0 0.843-0.124 1.016-0.373 0.173-0.241 0.264-0.621 0.271-1.141l0.011-0.655c-0.437 0.602-1.032 0.904-1.784 0.904-0.76 0-1.367-0.26-1.818-0.779-0.444-0.52-0.666-1.216-0.666-2.089 0-0.888 0.233-1.6 0.7-2.135 0.467-0.542 1.084-0.813 1.852-0.813 0.407 0 0.742 0.075 1.005 0.226 0.271 0.143 0.516 0.38 0.734 0.712v-0.779h1.513zM11.848 14.52c-0.241-0.294-0.572-0.44-0.994-0.44s-0.753 0.151-0.994 0.452c-0.233 0.294-0.35 0.708-0.35 1.242 0 0.512 0.12 0.922 0.361 1.231 0.248 0.301 0.58 0.452 0.994 0.452s0.742-0.154 0.983-0.463c0.241-0.309 0.361-0.727 0.361-1.254 0-0.52-0.12-0.926-0.361-1.22zM18.142 12.826c0.896 0 1.615 0.282 2.157 0.847 0.55 0.565 0.824 1.31 0.824 2.236 0 0.934-0.275 1.683-0.824 2.248-0.542 0.565-1.269 0.847-2.18 0.847s-1.641-0.282-2.191-0.847c-0.55-0.565-0.824-1.314-0.824-2.248 0-0.926 0.279-1.672 0.836-2.236s1.291-0.847 2.202-0.847zM18.097 14.046c-0.429 0-0.768 0.166-1.016 0.497s-0.373 0.787-0.373 1.367c0 0.595 0.124 1.058 0.373 1.389s0.595 0.497 1.039 0.497c0.444 0 0.787-0.166 1.028-0.497 0.248-0.339 0.373-0.806 0.373-1.4 0-0.58-0.128-1.032-0.384-1.355-0.248-0.331-0.595-0.497-1.039-0.497zM24.2 10.782v2.146l-0.44 3.445h-0.802l-0.44-3.422v-2.168h1.683zM24.233 17.096v1.728h-1.751v-1.728h1.751z"></path>
</symbol>
<symbol id="button-orange-plus" viewBox="0 0 32 32">
<path fill="#ff851c" style="fill: var(--color2, #ff851c)" d="M28.235 16c0 6.757-5.478 12.235-12.235 12.235s-12.235-5.478-12.235-12.235c0-6.757 5.478-12.235 12.235-12.235s12.235 5.478 12.235 12.235z"></path>
<path fill="#fff" style="fill: var(--color3, #fff)" d="M12.781 15.642h2.861v-2.861c0-0.198 0.16-0.358 0.358-0.358s0.358 0.16 0.358 0.358v0 2.861h2.861c0.198 0 0.358 0.16 0.358 0.358s-0.16 0.358-0.358 0.358v0h-2.861v2.861c0 0.198-0.16 0.358-0.358 0.358s-0.358-0.16-0.358-0.358v0-2.861h-2.861c-0.198 0-0.358-0.16-0.358-0.358s0.16-0.358 0.358-0.358v0z"></path>
</symbol>
<symbol id="calendar" viewBox="8 0 16 20">
<path fill="#00d7ff" style="fill: var(--color1, #00d7ff)" d="M13.091 9.164h-1.939v2.036h1.939v-2.036zM16.97 9.164h-1.94v2.036h1.94v-2.036zM20.848 9.164h-1.939v2.036h1.939v-2.036zM22.788 2.036h-0.97v-2.036h-1.939v2.036h-7.759v-2.036h-1.939v2.036h-0.97c-1.076 0-1.929 0.916-1.929 2.036l-0.010 14.255c0 1.12 0.863 2.036 1.939 2.036h13.577c1.066 0 1.939-0.916 1.939-2.036v-14.255c0-1.12-0.873-2.036-1.939-2.036zM22.788 18.327h-13.577v-11.2h13.577v11.2z"></path>
</symbol>
<symbol id="check-mark" viewBox="0 0 32 32">
<path  style="fill: var(--color4, #24d40c)" d="M10.183 22.651l-7.637-7.163-2.546 2.389 10.183 9.552 21.817-20.469-2.546-2.389-19.271 18.080z"></path>
</symbol>
<symbol id="completed-challenge" viewBox="0 0 32 32">
<path fill="#eaeaea" style="fill: var(--color1, #eaeaea)" d="M24.687 15.237l3.426-0.004c-0.038-0.172-0.17-0.307-0.34-0.35 0.011-0.038 0.013-0.078 0.013-0.119-0-0.267-0.216-0.485-0.485-0.484-0.075 0-0.148 0.019-0.213 0.049-0.103-0.226-0.332-0.385-0.596-0.385-0.283 0-0.522 0.178-0.614 0.429-0.081-0.054-0.175-0.083-0.28-0.083-0.28 0-0.509 0.229-0.509 0.51 0 0.024 0.003 0.049 0.005 0.073-0.202 0.022-0.366 0.17-0.409 0.364z"></path>
<path fill="#eaeaea" style="fill: var(--color1, #eaeaea)" d="M4.608 16.648l3.62-0.004c-0.041-0.18-0.181-0.326-0.359-0.369 0.011-0.040 0.016-0.081 0.016-0.127-0-0.283-0.229-0.512-0.512-0.511-0.081 0-0.156 0.019-0.223 0.051-0.108-0.24-0.351-0.406-0.631-0.406-0.299 0-0.552 0.189-0.649 0.453-0.084-0.056-0.186-0.089-0.296-0.089-0.296 0-0.538 0.24-0.538 0.539 0 0.027 0.003 0.051 0.005 0.075-0.213 0.022-0.388 0.178-0.433 0.386z"></path>
<path fill="#eaeaea" style="fill: var(--color1, #eaeaea)" d="M24.236 6.917l4.31-0.005c-0.049-0.215-0.216-0.388-0.429-0.439 0.011-0.049 0.019-0.097 0.019-0.148-0-0.337-0.273-0.608-0.609-0.608-0.097 0-0.186 0.022-0.267 0.062-0.13-0.285-0.418-0.484-0.749-0.484-0.356 0-0.657 0.224-0.773 0.54-0.1-0.067-0.221-0.105-0.35-0.105-0.353 0-0.641 0.289-0.64 0.642 0 0.030 0.003 0.062 0.006 0.092-0.256 0.019-0.463 0.208-0.517 0.453z"></path>
<path fill="#eaeaea" style="fill: var(--color1, #eaeaea)" d="M3.013 9.105l3.927-0.004c-0.043-0.197-0.194-0.353-0.391-0.401 0.011-0.043 0.016-0.089 0.016-0.135-0-0.307-0.248-0.555-0.555-0.554-0.086 0-0.17 0.019-0.242 0.057-0.119-0.258-0.38-0.439-0.682-0.438-0.323 0-0.598 0.205-0.702 0.491-0.092-0.059-0.202-0.094-0.321-0.094-0.323 0-0.584 0.262-0.584 0.585 0 0.027 0.003 0.057 0.005 0.084-0.232 0.016-0.42 0.186-0.471 0.41z"></path>
<path fill="#eaeaea" style="fill: var(--color1, #eaeaea)" d="M3.416 26.058l3.014-0.003c-0.032-0.151-0.151-0.269-0.299-0.307 0.008-0.032 0.013-0.067 0.013-0.105-0-0.234-0.192-0.425-0.426-0.425-0.067 0-0.129 0.016-0.186 0.043-0.092-0.199-0.291-0.336-0.526-0.336-0.248 0-0.458 0.157-0.538 0.378-0.070-0.046-0.154-0.072-0.245-0.072-0.248 0-0.447 0.2-0.447 0.448 0 0.022 0.003 0.043 0.005 0.065-0.183 0.014-0.329 0.146-0.366 0.316z"></path>
<path fill="#eaeaea" style="fill: var(--color1, #eaeaea)" d="M25.761 25.137l3.014-0.003c-0.032-0.151-0.151-0.269-0.299-0.307 0.008-0.032 0.013-0.067 0.013-0.105-0-0.234-0.192-0.425-0.426-0.425-0.067 0-0.129 0.016-0.186 0.043-0.092-0.199-0.291-0.336-0.526-0.336-0.248 0-0.458 0.157-0.538 0.378-0.070-0.046-0.154-0.073-0.245-0.072-0.248 0-0.447 0.2-0.447 0.447-0 0.022 0.003 0.043 0.005 0.065-0.183 0.011-0.328 0.143-0.366 0.315z"></path>
<path fill="#d67412" style="fill: var(--color2, #d67412)" d="M16.248 26.069c-0.229 0.149-0.555 0.149-0.784 0.001l-6.011-3.878c-0.453-0.29-0.192-0.873 0.39-0.873l12.013-0.013c0.582-0.001 0.844 0.578 0.391 0.872l-6 3.89z"></path>
<path fill="#fc842c" style="fill: var(--color3, #fc842c)" d="M14.15 25.966c-0.043 0.051-0.11 0.051-0.153 0l-2.549-3.052c-0.067-0.083-0.022-0.223 0.075-0.224l5.096-0.006c0.097-0 0.146 0.143 0.076 0.224l-2.545 3.057z"></path>
<path fill="#fc842c" style="fill: var(--color3, #fc842c)" d="M17.45 26.065c-0.046 0.057-0.121 0.057-0.167 0l-2.81-3.364c-0.075-0.092-0.022-0.248 0.083-0.248l5.613-0.006c0.108-0 0.159 0.156 0.084 0.248l-1.34 1.612-1.463 1.758z"></path>
<path fill="#fc842c" style="fill: var(--color3, #fc842c)" d="M15.832 26.998c-0.038 0.046-0.097 0.046-0.135 0l-2.26-2.702c-0.062-0.073-0.019-0.199 0.067-0.199l4.515-0.005c0.086-0 0.129 0.127 0.067 0.199l-1.079 1.294-1.176 1.413z"></path>
<path fill="#f99943" style="fill: var(--color4, #f99943)" d="M18.427 23.001l-0.644 0.001c-0.075 0-0.137-0.070-0.138-0.156s0.062-0.156 0.137-0.156l0.644-0.001c0.076-0 0.137 0.070 0.137 0.156 0 0.089-0.062 0.156-0.137 0.156z"></path>
<path fill="#f99943" style="fill: var(--color4, #f99943)" d="M18.855 23.001l-0.092 0c-0.075 0-0.137-0.070-0.138-0.156s0.062-0.156 0.137-0.157l0.091-0c0.076-0 0.137 0.070 0.137 0.156 0 0.089-0.062 0.156-0.137 0.156z"></path>
<path fill="#f99943" style="fill: var(--color4, #f99943)" d="M15.715 23.497l-0.76 0.001c-0.089 0-0.162-0.081-0.162-0.183s0.073-0.183 0.161-0.183l0.76-0.001c0.089 0 0.162 0.081 0.162 0.183s-0.073 0.183-0.161 0.183z"></path>
<path fill="#f99943" style="fill: var(--color4, #f99943)" d="M16.221 23.496l-0.108 0c-0.089 0-0.162-0.081-0.162-0.183s0.073-0.183 0.161-0.183l0.108-0c0.089-0 0.162 0.081 0.162 0.183s-0.073 0.183-0.161 0.183z"></path>
<path fill="#f99943" style="fill: var(--color4, #f99943)" d="M15.82 25.948l-0.439 0c-0.051-0-0.094-0.048-0.094-0.105-0-0.059 0.043-0.105 0.094-0.105l0.439-0c0.051-0 0.094 0.048 0.094 0.105s-0.043 0.105-0.094 0.105z"></path>
<path fill="#f99943" style="fill: var(--color4, #f99943)" d="M16.111 25.948l-0.062 0c-0.051-0-0.094-0.048-0.094-0.105-0-0.059 0.043-0.105 0.094-0.105l0.062-0c0.051-0 0.094 0.048 0.094 0.105s-0.040 0.105-0.094 0.105z"></path>
<path fill="#f99943" style="fill: var(--color4, #f99943)" d="M13.525 23.343c0 0.129-0.091 0.232-0.207 0.232l-0.625 0.001c-0.113 0-0.208-0.105-0.208-0.231-0-0.129 0.091-0.232 0.207-0.232l0.625-0.001c0.116-0 0.207 0.102 0.208 0.232z"></path>
<path fill="#f99943" style="fill: var(--color4, #f99943)" d="M13.991 23.677c0 0.129-0.091 0.232-0.207 0.232l-0.625 0.001c-0.113 0-0.208-0.105-0.208-0.232-0-0.129 0.091-0.232 0.207-0.232l0.625-0.001c0.116-0 0.207 0.102 0.208 0.231z"></path>
<path fill="#f99943" style="fill: var(--color4, #f99943)" d="M17.593 23.859c0-0.1-0.073-0.183-0.162-0.183l-0.493 0c-0.089 0-0.162 0.081-0.161 0.183 0 0.1 0.073 0.183 0.162 0.183l0.493-0c0.089-0 0.162-0.081 0.161-0.183z"></path>
<path fill="#f99943" style="fill: var(--color4, #f99943)" d="M17.959 23.594c-0-0.1-0.073-0.183-0.162-0.183l-0.49 0.001c-0.089 0-0.162 0.081-0.161 0.183 0 0.1 0.073 0.183 0.162 0.183l0.49-0.001c0.089 0 0.162-0.081 0.161-0.183z"></path>
<path fill="#f99943" style="fill: var(--color4, #f99943)" d="M17.761 24.489c-0.108-0-0.197 0.1-0.196 0.221 0 0.035 0.008 0.067 0.022 0.097l-0.129 0c-0.108 0-0.197 0.1-0.196 0.221 0 0.124 0.089 0.221 0.197 0.221l0.665-0.001 0.637-0.766-0.999 0.001-0 0.005z"></path>
<path fill="#f99943" style="fill: var(--color4, #f99943)" d="M13.944 24.652l-0.129 0c0.013-0.030 0.021-0.062 0.021-0.097-0-0.124-0.089-0.221-0.197-0.221l-1.002 0.001 0.032 0.040 0.604 0.724 0.671-0.001c0.108-0 0.197-0.1 0.196-0.221-0-0.127-0.089-0.226-0.197-0.226z"></path>
<path fill="#f99943" style="fill: var(--color4, #f99943)" d="M16.004 24.372c0 0.116-0.083 0.207-0.186 0.208l-0.862 0.001c-0.102 0-0.186-0.094-0.186-0.207-0-0.116 0.083-0.208 0.186-0.208l0.862-0.001c0.105-0 0.186 0.091 0.186 0.207z"></path>
<path fill="#f99943" style="fill: var(--color4, #f99943)" d="M15.665 24.701c-0-0.067 0.048-0.121 0.108-0.121l-0.409 0c0.059 0 0.108 0.054 0.108 0.121s-0.048 0.121-0.108 0.121l0.407-0c-0.059-0-0.105-0.054-0.105-0.121z"></path>
<path fill="#f99943" style="fill: var(--color4, #f99943)" d="M16.401 25.005c0 0.102-0.073 0.183-0.161 0.183l-1.021 0.001c-0.089 0-0.162-0.081-0.162-0.183s0.073-0.183 0.161-0.183l1.021-0.001c0.089-0 0.162 0.083 0.162 0.183z"></path>
<path fill="#bc5800" style="fill: var(--color5, #bc5800)" d="M23.367 20.003c-0.024-0.043-0.065-0.070-0.11-0.070l-14.812 0.016c-0.046-0-0.086 0.027-0.11 0.070s-0.024 0.097-0.003 0.143l0.969 2.030c0.022 0.049 0.067 0.075 0.113 0.075l12.881-0.014c0.048-0 0.091-0.030 0.113-0.076l0.965-2.032c0.019-0.046 0.016-0.1-0.006-0.143z"></path>
<path fill="#aa5000" style="fill: var(--color6, #aa5000)" d="M11.821 21.858l-1.25 0.001c-0.148 0-0.267-0.134-0.267-0.301s0.118-0.302 0.266-0.302l1.25-0.001c0.148-0 0.267 0.134 0.267 0.301s-0.118 0.302-0.266 0.302z"></path>
<path fill="#aa5000" style="fill: var(--color6, #aa5000)" d="M12.653 21.857l-0.178 0c-0.148 0-0.267-0.134-0.267-0.301s0.118-0.302 0.266-0.302l0.178-0c0.148-0 0.267 0.134 0.267 0.301s-0.118 0.302-0.266 0.302z"></path>
<path fill="#aa5000" style="fill: var(--color6, #aa5000)" d="M19.716 21.273l1.142-0.001c0.135-0 0.245 0.123 0.246 0.274s-0.11 0.275-0.245 0.275l-1.142 0.001c-0.135 0-0.245-0.124-0.245-0.275s0.11-0.275 0.245-0.275z"></path>
<path fill="#aa5000" style="fill: var(--color6, #aa5000)" d="M18.953 21.274l0.164-0c0.135-0 0.245 0.124 0.246 0.274s-0.11 0.275-0.245 0.275l-0.164 0c-0.135 0-0.245-0.124-0.245-0.274s0.11-0.275 0.245-0.275z"></path>
<path fill="#aa5000" style="fill: var(--color6, #aa5000)" d="M16.249 21.352c0 0.164-0.118 0.299-0.264 0.299l-0.741 0.001c-0.145 0-0.264-0.134-0.264-0.299s0.118-0.299 0.264-0.299l0.738-0.001c0.148-0 0.267 0.132 0.267 0.299z"></path>
<path fill="#aa5000" style="fill: var(--color6, #aa5000)" d="M16.966 21.68c0 0.17-0.124 0.31-0.274 0.31l-0.757 0.001c-0.151 0-0.275-0.137-0.275-0.309-0-0.17 0.124-0.31 0.274-0.31l0.757-0.001c0.151-0 0.275 0.14 0.275 0.309z"></path>
<path fill="#dfdfdf" style="fill: var(--color7, #dfdfdf)" d="M23.424 20.723c0 0.062-0.043 0.111-0.099 0.111l-15.116 0.016c-0.054 0-0.1-0.048-0.1-0.11l-0.001-1.242c-0-0.062 0.043-0.111 0.1-0.111l15.116-0.016c0.054-0 0.1 0.048 0.1 0.11l0.001 1.242z"></path>
<path fill="#c3c3c3" style="fill: var(--color8, #c3c3c3)" d="M23.323 19.37l-0.102 0 0.001 1.147c0 0.062-0.043 0.111-0.099 0.111l-15.014 0.016 0 0.094c0 0.062 0.043 0.11 0.1 0.11l15.116-0.016c0.054 0 0.1-0.049 0.099-0.111l-0.001-1.242c-0-0.062-0.046-0.11-0.1-0.11z"></path>
<path fill="#fff" style="fill: var(--color9, #fff)" d="M9.551 20.037l-0.7 0.001c-0.084 0-0.151-0.075-0.151-0.169s0.067-0.17 0.151-0.17l0.7-0.001c0.084-0 0.151 0.075 0.151 0.169s-0.070 0.17-0.151 0.17z"></path>
<path fill="#fff" style="fill: var(--color9, #fff)" d="M10.017 20.036l-0.1 0c-0.084 0-0.151-0.075-0.151-0.169s0.067-0.17 0.151-0.17l0.1-0c0.084-0 0.151 0.075 0.151 0.17s-0.070 0.17-0.151 0.17z"></path>
<path fill="#00d7ff" style="fill: var(--color10, #00d7ff)" d="M16.427 17.059l-1.298 0.001-0.037-4.334 1.298 0.001 0.037 4.331z"></path>
<path fill="#00d7ff" style="fill: var(--color10, #00d7ff)" d="M15.745 16.216l-2.125 2.289 4.288 0.004-2.163-2.293-2.125 2.289 4.288 0.004-2.163-2.293z"></path>
<path fill="#00d7ff" style="fill: var(--color10, #00d7ff)" d="M12.862 12.869c-0.167-0.011-4.081-0.278-4.103-3.155-0.006-0.725 0.195-1.312 0.599-1.749 0.926-1.006 2.596-0.789 2.668-0.779l-0.072 0.838c-0.013-0.003-1.433-0.182-2.127 0.571-0.25 0.275-0.371 0.639-0.368 1.118 0.016 2.077 3.399 2.31 3.431 2.31l-0.029 0.846z"></path>
<path fill="#00d7ff" style="fill: var(--color10, #00d7ff)" d="M18.696 12.87c0.167-0.011 4.075-0.274 4.053-3.15-0.006-0.725-0.217-1.314-0.627-1.75-0.941-1.006-2.608-0.792-2.681-0.784l0.084 0.84c0.013-0.003 1.43-0.182 2.137 0.574 0.256 0.274 0.383 0.641 0.386 1.12 0.016 2.077-3.362 2.307-3.394 2.307l0.041 0.843z"></path>
<path fill="#00d7ff" style="fill: var(--color10, #00d7ff)" d="M10.98 5.73c-0.148 0-0.272 0.119-0.277 0.267-0.005 0.159-0.005 0.321-0.005 0.482 0.037 4.808 2.328 8.706 5.119 8.708s5.022-3.895 4.985-8.703c-0-0.164-0.006-0.326-0.011-0.485-0.006-0.148-0.127-0.264-0.275-0.264l-9.535-0.006z"></path>
<path fill="#fff" style="fill: var(--color9, #fff)" d="M12.589 11.546c-0.127 0-0.248-0.072-0.302-0.196-0.44-1.010-0.708-2.197-0.777-3.439-0.011-0.18 0.129-0.337 0.309-0.345 0.18-0.011 0.337 0.129 0.345 0.309 0.063 1.164 0.315 2.276 0.723 3.215 0.073 0.167-0.005 0.361-0.169 0.431-0.040 0.016-0.083 0.024-0.129 0.024z"></path>
<path fill="#fff" style="fill: var(--color9, #fff)" d="M11.827 7.396c-0.003 0-0.005 0-0.008 0-0.18-0.003-0.326-0.153-0.321-0.334 0.003-0.092 0.005-0.183 0.008-0.283 0.008-0.18 0.161-0.321 0.342-0.316 0.181 0.008 0.321 0.161 0.316 0.342-0.005 0.094-0.008 0.181-0.008 0.267-0.005 0.18-0.15 0.323-0.328 0.324z"></path>
<path fill="#fff" style="fill: var(--color9, #fff)" d="M13.466 13.108l0.016 0.008 1.071-0.675 0.174 1.255 0.016 0.005 1.578-3.393-1.277-0.591-1.578 3.39z"></path>
<path fill="#fff" style="fill: var(--color9, #fff)" d="M18.050 13.103l-0.016 0.008-1.073-0.672-0.171 1.255-0.016 0.005-1.585-3.39 1.276-0.594 1.585 3.387z"></path>
<path fill="#fff" style="fill: var(--color9, #fff)" d="M17.376 10.972c0.894-0.896 0.893-2.347-0.003-3.242s-2.347-0.893-3.242 0.003c-0.894 0.896-0.893 2.347 0.003 3.242s2.347 0.893 3.242-0.003z"></path>
<path fill="#00d7ff" style="fill: var(--color10, #00d7ff)" d="M17.615 9.351c0.001 1.026-0.83 1.862-1.859 1.863-1.026 0.001-1.862-0.83-1.863-1.859-0.001-1.026 0.83-1.862 1.859-1.863 1.026 0.002 1.862 0.833 1.863 1.859z"></path>
<path fill="#fff" style="fill: var(--color9, #fff)" d="M16.105 10.506l-0.506 0.001-0.002-1.689-0.194 0-0-0.337c0.073-0 0.135-0.032 0.186-0.094s0.075-0.124 0.075-0.186l0.439-0 0.002 2.306z"></path>
<path fill="#00d7ff" style="fill: var(--color10, #00d7ff)" d="M18.458 19.324c0 0.027-0.021 0.051-0.048 0.051l-5.29 0.006c-0.027 0-0.049-0.021-0.049-0.051l-0.001-0.786c-0-0.027 0.022-0.051 0.048-0.051l5.293-0.006c0.027-0 0.049 0.021 0.049 0.051l0.001 0.787h-0.003z"></path>
<path fill="#eaeaea" style="fill: var(--color1, #eaeaea)" d="M17.62 24.37l3.973-0.004c-0.043-0.199-0.197-0.355-0.394-0.406 0.011-0.043 0.016-0.089 0.016-0.137-0-0.31-0.251-0.56-0.561-0.56-0.089 0-0.172 0.022-0.245 0.057-0.119-0.264-0.383-0.444-0.693-0.444-0.326 0-0.606 0.208-0.71 0.496-0.094-0.062-0.205-0.097-0.323-0.097-0.326 0-0.59 0.265-0.589 0.59 0 0.030 0.003 0.057 0.006 0.083-0.237 0.022-0.431 0.195-0.479 0.421z"></path>
<path fill="#eaeaea" style="fill: var(--color1, #eaeaea)" d="M9.798 23.8l4.738-0.005c-0.051-0.237-0.235-0.425-0.472-0.484 0.013-0.051 0.021-0.108 0.021-0.164-0-0.369-0.3-0.668-0.669-0.667-0.105 0-0.205 0.024-0.293 0.068-0.143-0.312-0.458-0.53-0.825-0.53-0.391 0-0.722 0.246-0.848 0.593-0.111-0.073-0.243-0.115-0.385-0.115-0.388 0-0.703 0.316-0.702 0.704 0 0.035 0.003 0.067 0.008 0.1-0.283 0.024-0.514 0.232-0.573 0.502z"></path>
<path fill="none" stroke="#000" style="stroke: var(--color11, #000)" stroke-linejoin="miter" stroke-linecap="round" stroke-miterlimit="4" stroke-width="0.4" d="M16.8 11l0.002 0.002"></path>
</symbol>
<symbol id="completed-todo" viewBox="0 0 32 32">
<path fill="#eaeaea" style="fill: var(--color5, #eaeaea)" d="M26.753 15.062h4.23c-0.048-0.213-0.209-0.378-0.415-0.432l-0.004-0.001c0.013-0.046 0.017-0.096 0.017-0.146 0-0 0-0 0-0 0-0.33-0.268-0.598-0.598-0.598-0 0-0 0-0 0h0c-0.096 0.001-0.186 0.023-0.266 0.061l0.004-0.002c-0.13-0.282-0.41-0.475-0.735-0.476h-0c-0 0-0.001 0-0.002 0-0.346 0-0.64 0.218-0.755 0.523l-0.002 0.006c-0.096-0.065-0.214-0.103-0.341-0.103-0.002 0-0.004 0-0.006 0h0c-0.347 0.001-0.628 0.282-0.629 0.629v0c0 0.030 0.003 0.060 0.007 0.090-0.25 0.025-0.452 0.207-0.505 0.445l-0.001 0.004zM1.959 16.775h4.47c-0.050-0.223-0.223-0.403-0.442-0.456 0.013-0.047 0.020-0.101 0.020-0.157 0-0.349-0.283-0.632-0.632-0.632-0.101 0-0.196 0.024-0.28 0.065l0.004-0.002c-0.137-0.299-0.434-0.502-0.778-0.502-0 0-0 0-0 0h0c-0 0-0.001 0-0.001 0-0.365 0-0.677 0.23-0.799 0.553l-0.002 0.006c-0.102-0.069-0.227-0.11-0.362-0.11-0.001 0-0.003 0-0.004 0h0c-0 0-0 0-0 0-0.367 0-0.665 0.298-0.665 0.665 0 0 0 0 0 0v0c0 0.033 0.003 0.063 0.007 0.093-0.263 0.026-0.479 0.22-0.535 0.476zM26.207 4.785h5.325c-0.061-0.267-0.264-0.474-0.524-0.541l-0.005-0.001c0.014-0.055 0.022-0.118 0.023-0.183v-0.001c0-0 0-0 0-0.001 0-0.415-0.336-0.751-0.751-0.751-0 0-0.001 0-0.001 0h0c-0.12 0-0.229 0.026-0.329 0.077-0.163-0.356-0.516-0.599-0.926-0.599-0.435 0-0.806 0.274-0.951 0.659l-0.002 0.007c-0.12-0.081-0.268-0.13-0.428-0.13-0.002 0-0.003 0-0.005 0h0c-0.437 0.001-0.791 0.355-0.792 0.791v0c0 0.037 0.003 0.077 0.007 0.113-0.317 0.025-0.574 0.254-0.641 0.554l-0.001 0.005zM0 7.459h4.849c-0.055-0.244-0.24-0.434-0.478-0.494l-0.005-0.001c0.013-0.053 0.020-0.11 0.020-0.166 0-0 0-0.001 0-0.001 0-0.378-0.306-0.684-0.684-0.684-0 0-0.001 0-0.001 0h0c-0.106 0-0.21 0.023-0.299 0.070-0.15-0.322-0.47-0.541-0.841-0.542h-0c-0.396 0-0.734 0.249-0.866 0.599l-0.002 0.006c-0.111-0.073-0.248-0.116-0.395-0.116-0 0-0.001 0-0.001 0h0c-0 0-0 0-0.001 0-0.398 0-0.721 0.323-0.721 0.721 0 0 0 0 0 0.001v-0c0 0.033 0.003 0.070 0.007 0.103-0.287 0.022-0.52 0.229-0.581 0.501l-0.001 0.004zM0.472 28.391h3.721c-0.043-0.186-0.184-0.331-0.365-0.378l-0.003-0.001c0.010-0.040 0.017-0.083 0.017-0.13-0.001-0.29-0.235-0.525-0.525-0.526h-0c-0.083 0-0.16 0.020-0.23 0.053-0.115-0.247-0.361-0.416-0.647-0.416-0.001 0-0.001 0-0.002 0h0c-0 0-0 0-0.001 0-0.304 0-0.563 0.192-0.663 0.461l-0.002 0.005c-0.085-0.056-0.189-0.090-0.301-0.090-0.001 0-0.001 0-0.002 0h0c-0 0-0.001 0-0.002 0-0.304 0-0.551 0.247-0.551 0.551 0 0 0 0.001 0 0.001v-0c0 0.027 0.003 0.053 0.007 0.080-0.222 0.017-0.402 0.176-0.452 0.386l-0.001 0.003zM10.509 4.090h4.719c-0.054-0.237-0.234-0.422-0.464-0.481l-0.004-0.001c0.013-0.049 0.020-0.105 0.020-0.163 0-0.367-0.298-0.665-0.665-0.665-0 0-0 0-0.001 0h0c-0.103 0-0.203 0.023-0.292 0.066-0.145-0.315-0.458-0.529-0.821-0.529-0.386 0-0.715 0.242-0.843 0.583l-0.002 0.006c-0.108-0.073-0.241-0.116-0.385-0.116-0 0-0.001 0-0.001 0h0c-0 0-0 0-0.001 0-0.388 0-0.702 0.314-0.702 0.702 0 0.035 0.003 0.070 0.008 0.104l-0-0.004c-0.279 0.023-0.505 0.23-0.565 0.499zM28.066 27.284h3.721c-0.043-0.186-0.184-0.331-0.366-0.378l-0.003-0.001c0.010-0.040 0.017-0.083 0.017-0.13-0.001-0.29-0.235-0.525-0.525-0.525h-0c-0.083 0-0.16 0.020-0.23 0.053-0.115-0.247-0.361-0.416-0.647-0.416-0.001 0-0.001 0-0.002 0h0c-0 0-0 0-0.001 0-0.304 0-0.563 0.192-0.663 0.461l-0.002 0.005c-0.085-0.056-0.189-0.090-0.301-0.090-0.001 0-0.001 0-0.002 0h0c-0 0-0.001 0-0.001 0-0.304 0-0.551 0.247-0.551 0.551 0 0 0 0.001 0 0.001v-0c0 0.026 0.003 0.053 0.007 0.080-0.223 0.014-0.405 0.175-0.452 0.386l-0.001 0.003z"></path>
<path fill="#d67412" style="fill: var(--color6, #d67412)" d="M16.32 28.421c-0.282 0.183-0.685 0.183-0.968 0l-7.417-4.796c-0.559-0.359-0.236-1.078 0.482-1.078h14.833c0.718 0 1.041 0.715 0.482 1.078l-7.413 4.796z"></path>
<path fill="#fc842c" style="fill: var(--color7, #fc842c)" d="M13.729 28.292c-0.053 0.063-0.136 0.063-0.19 0l-1.636-1.969-1.503-1.803c-0.083-0.103-0.026-0.276 0.093-0.276h6.292c0.12 0 0.18 0.176 0.093 0.276l-1.503 1.803-1.646 1.969z"></path>
<path fill="#fc842c" style="fill: var(--color7, #fc842c)" d="M17.803 28.418c-0.057 0.070-0.15 0.070-0.206 0l-1.809-2.168-1.656-1.989c-0.093-0.113-0.026-0.306 0.103-0.306h6.931c0.133 0 0.196 0.193 0.103 0.306l-1.656 1.989-1.809 2.168z"></path>
<path fill="#fc842c" style="fill: var(--color7, #fc842c)" d="M15.804 29.569c-0.046 0.056-0.12 0.056-0.166 0l-2.787-3.339c-0.076-0.090-0.023-0.246 0.083-0.246h5.574c0.106 0 0.16 0.156 0.083 0.246l-1.334 1.596-1.453 1.743z"></path>
<path fill="#f99943" style="fill: var(--color8, #f99943)" d="M19.014 24.637h-0.795c-0.093 0-0.17-0.087-0.17-0.193s0.077-0.193 0.17-0.193h0.795c0.093 0 0.169 0.086 0.169 0.193s-0.076 0.193-0.169 0.193zM19.542 24.637h-0.113c-0.093 0-0.17-0.087-0.17-0.193s0.077-0.193 0.17-0.193h0.113c0.093 0 0.169 0.086 0.169 0.193s-0.076 0.193-0.169 0.193zM15.665 25.245h-0.938c-0.11 0-0.2-0.1-0.2-0.226s0.090-0.226 0.2-0.226h0.938c0.11 0 0.199 0.1 0.199 0.226s-0.090 0.226-0.2 0.226zM16.29 25.245h-0.133c-0.11 0-0.2-0.1-0.2-0.226s0.090-0.226 0.2-0.226h0.133c0.11 0 0.2 0.1 0.2 0.226s-0.090 0.226-0.2 0.226zM15.787 28.272h-0.542c-0.063 0-0.116-0.060-0.116-0.13s0.053-0.13 0.117-0.13h0.542c0.063 0 0.116 0.060 0.116 0.13s-0.050 0.13-0.116 0.13zM16.15 28.272h-0.077c-0.063 0-0.117-0.060-0.117-0.13s0.053-0.13 0.117-0.13h0.077c0.063 0 0.116 0.060 0.116 0.13s-0.050 0.13-0.116 0.13zM12.96 25.052c0 0.16-0.113 0.286-0.256 0.286h-0.772c-0.14 0-0.256-0.13-0.256-0.286 0-0.16 0.113-0.286 0.256-0.286h0.772c0.143 0 0.256 0.126 0.256 0.286z"></path>
<path fill="#f99943" style="fill: var(--color8, #f99943)" d="M13.536 25.465c0 0.16-0.113 0.286-0.256 0.286h-0.772c-0.14 0-0.256-0.13-0.256-0.286 0-0.16 0.113-0.286 0.256-0.286h0.772c0.143 0 0.256 0.126 0.256 0.286zM17.982 25.694c0-0.123-0.090-0.226-0.2-0.226h-0.609c-0.11 0-0.2 0.1-0.2 0.226 0 0.123 0.090 0.226 0.2 0.226h0.609c0.11 0 0.2-0.1 0.2-0.226z"></path>
<path fill="#f99943" style="fill: var(--color8, #f99943)" d="M18.435 25.372c0-0.123-0.090-0.226-0.2-0.226h-0.605c-0.11 0-0.2 0.1-0.2 0.226 0 0.123 0.090 0.226 0.2 0.226h0.605c0.11-0.003 0.2-0.103 0.2-0.226zM18.189 26.472c-0.133 0-0.243 0.123-0.243 0.273 0 0.043 0.010 0.083 0.026 0.12h-0.159c-0.133 0-0.243 0.123-0.243 0.273 0 0.153 0.11 0.273 0.243 0.273h0.821l0.788-0.945h-1.234v0.007zM13.476 26.669h-0.16c0.017-0.037 0.026-0.077 0.026-0.12 0-0.153-0.11-0.273-0.243-0.273h-1.237l0.040 0.050 0.745 0.894h0.828c0.133 0 0.243-0.123 0.243-0.273 0-0.156-0.11-0.279-0.243-0.279zM16.020 26.326c0 0.143-0.103 0.256-0.23 0.256h-1.064c-0.126 0-0.23-0.117-0.23-0.256 0-0.143 0.103-0.256 0.23-0.256h1.064c0.13 0 0.23 0.113 0.23 0.256zM15.601 26.732c0-0.083 0.060-0.15 0.133-0.15h-0.505c0.073 0 0.133 0.066 0.133 0.15s-0.060 0.15-0.133 0.15h0.505c-0.076 0-0.133-0.066-0.133-0.15z"></path>
<path fill="#f99943" style="fill: var(--color8, #f99943)" d="M16.509 27.108c0 0.126-0.090 0.226-0.2 0.226h-1.261c-0.11 0-0.2-0.1-0.2-0.226s0.090-0.226 0.2-0.226h1.261c0.11 0 0.2 0.103 0.2 0.226z"></path>
<path fill="#bc5800" style="fill: var(--color9, #bc5800)" d="M25.116 20.942c-0.030-0.053-0.080-0.087-0.136-0.087h-18.289c-0.056 0-0.106 0.033-0.136 0.087-0.014 0.026-0.023 0.058-0.023 0.091 0 0.031 0.007 0.060 0.020 0.086l-0-0.001 1.194 2.507c0.026 0.060 0.083 0.093 0.14 0.093h15.904c0.062-0.001 0.115-0.039 0.139-0.092l0-0.001 1.194-2.507c0.010-0.024 0.016-0.052 0.016-0.081 0-0.035-0.008-0.068-0.023-0.097l0.001 0.001z"></path>
<path fill="#aa5000" style="fill: var(--color10, #aa5000)" d="M10.859 23.217h-1.543c-0.183 0-0.329-0.166-0.329-0.373s0.146-0.373 0.329-0.373h1.543c0.183 0 0.329 0.166 0.329 0.373s-0.146 0.373-0.329 0.373zM11.886 23.217h-0.22c-0.183 0-0.329-0.166-0.329-0.373s0.146-0.373 0.329-0.373h0.22c0.183 0 0.329 0.166 0.329 0.373s-0.146 0.373-0.329 0.373zM20.606 22.505h1.41c0.166 0 0.303 0.153 0.303 0.339s-0.136 0.339-0.303 0.339h-1.41c-0.166 0-0.303-0.153-0.303-0.339s0.136-0.339 0.303-0.339zM19.665 22.505h0.203c0.166 0 0.303 0.153 0.303 0.339s-0.136 0.339-0.303 0.339h-0.203c-0.166 0-0.302-0.153-0.302-0.339s0.136-0.339 0.302-0.339zM16.326 22.598c0 0.203-0.146 0.369-0.326 0.369h-0.915c-0.18 0-0.326-0.166-0.326-0.369s0.146-0.369 0.326-0.369h0.915c0.18 0 0.326 0.166 0.326 0.369z"></path>
<path fill="#aa5000" style="fill: var(--color10, #aa5000)" d="M17.211 23.004c0 0.209-0.153 0.382-0.339 0.382h-0.935c-0.186 0-0.339-0.17-0.339-0.382 0-0.21 0.153-0.383 0.339-0.383h0.935c0.186 0 0.339 0.173 0.339 0.383z"></path>
<path fill="#dfdfdf" style="fill: var(--color11, #dfdfdf)" d="M25.186 21.83c0 0.076-0.053 0.136-0.123 0.136h-18.664c-0.067 0-0.123-0.060-0.123-0.136v-1.533c0-0.076 0.053-0.136 0.123-0.136h18.664c0.066 0 0.123 0.060 0.123 0.136v1.533z"></path>
<path fill="#c3c3c3" style="fill: var(--color12, #c3c3c3)" d="M25.063 20.16h-0.126v1.42c0 0.077-0.053 0.136-0.123 0.136h-18.538v0.117c0 0.076 0.053 0.136 0.123 0.136h18.664c0.066 0 0.123-0.060 0.123-0.136v-1.533c0-0.080-0.057-0.14-0.123-0.14z"></path>
<path fill="#fff" style="fill: var(--color3, #fff)" d="M8.055 20.965h-0.865c-0.103 0-0.186-0.093-0.186-0.209s0.083-0.21 0.186-0.21h0.865c0.103 0 0.186 0.093 0.186 0.21s-0.083 0.21-0.186 0.21zM8.634 20.965h-0.123c-0.103 0-0.186-0.093-0.186-0.209s0.083-0.21 0.186-0.21h0.123c0.103 0 0.186 0.093 0.186 0.21-0.003 0.117-0.086 0.21-0.186 0.21z"></path>
<path fill="#eaeaea" style="fill: var(--color5, #eaeaea)" d="M18.016 26.326h4.905c-0.056-0.246-0.242-0.438-0.481-0.501l-0.005-0.001c0.013-0.053 0.020-0.11 0.020-0.169 0-0 0-0.001 0-0.001 0-0.382-0.309-0.691-0.691-0.691-0.11 0-0.215 0.026-0.307 0.072l0.004-0.002c-0.15-0.326-0.473-0.549-0.849-0.549-0.002 0-0.004 0-0.006 0h0c-0.401 0-0.742 0.252-0.876 0.606l-0.002 0.006c-0.113-0.075-0.251-0.119-0.399-0.119-0.402 0-0.728 0.326-0.728 0.728v0c0 0.036 0.003 0.070 0.007 0.103-0.292 0.026-0.528 0.237-0.591 0.514l-0.001 0.004zM8.358 25.611h5.85c-0.066-0.295-0.29-0.524-0.577-0.598l-0.005-0.001c0.017-0.063 0.027-0.133 0.027-0.203 0-0 0-0 0-0 0-0.455-0.369-0.825-0.825-0.825v0c-0.13 0-0.253 0.030-0.363 0.083-0.181-0.389-0.568-0.655-1.018-0.655h-0c-0.001 0-0.002 0-0.003 0-0.478 0-0.885 0.301-1.042 0.724l-0.002 0.008c-0.134-0.090-0.298-0.143-0.475-0.143-0 0-0 0-0 0v0c-0.479 0-0.868 0.389-0.868 0.868v0c0 0.043 0.004 0.083 0.010 0.123-0.349 0.033-0.635 0.286-0.708 0.619z"></path>
<path fill="#00d7ff" style="fill: var(--color1, #00d7ff)" d="M15.618 20.047c4.146 0 7.506-3.361 7.506-7.506s-3.361-7.506-7.506-7.506c-4.146 0-7.506 3.361-7.506 7.506s3.361 7.506 7.506 7.506z"></path>
<path fill="#fff" style="fill: var(--color3, #fff)" d="M19.962 16.884c2.399-2.399 2.399-6.288 0-8.687s-6.288-2.399-8.687 0c-2.399 2.399-2.399 6.288 0 8.687s6.288 2.399 8.687 0z"></path>
<path fill="#00d7ff" style="fill: var(--color1, #00d7ff)" d="M15.618 17.2c2.573 0 4.659-2.086 4.659-4.659s-2.086-4.659-4.659-4.659c-2.573 0-4.659 2.086-4.659 4.659s2.086 4.659 4.659 4.659z"></path>
<path fill="#fff" style="fill: var(--color3, #fff)" d="M18.010 14.932c1.321-1.321 1.321-3.462 0-4.783s-3.463-1.321-4.783 0c-1.321 1.321-1.321 3.462 0 4.783s3.463 1.321 4.783 0z"></path>
<path fill="#00d7ff" style="fill: var(--color1, #00d7ff)" d="M17.406 13.478c0.145-0.272 0.231-0.595 0.231-0.938 0-1.115-0.904-2.019-2.019-2.019-0.772 0-1.443 0.433-1.783 1.070l-0.005 0.011c-0.145 0.272-0.231 0.595-0.231 0.938 0 1.115 0.904 2.019 2.019 2.019 0.772 0 1.443-0.433 1.783-1.070l0.005-0.011z"></path>
<path fill="#fff" style="fill: var(--color3, #fff)" d="M15.749 13.631c0.548-0.067 0.968-0.529 0.968-1.090 0-0.606-0.491-1.098-1.098-1.098-0.046 0-0.091 0.003-0.135 0.008l0.005-0.001c-0.548 0.067-0.968 0.529-0.968 1.090 0 0.606 0.491 1.098 1.098 1.098 0.046 0 0.091-0.003 0.135-0.008l-0.005 0.001z"></path>
<path fill="#ff7b00" style="fill: var(--color13, #ff7b00)" d="M19.942 10.642l0.665-2.631 3.994-1.709-0.815 2.511 2.385 1.084-3.911 1.836-2.318-1.091z"></path>
<path fill="#ff9557" style="fill: var(--color14, #ff9557)" d="M15.492 12.996c-0.135-0.049-0.242-0.149-0.298-0.276l-0.001-0.003c-0.029-0.063-0.045-0.136-0.045-0.213 0-0.211 0.125-0.392 0.305-0.474l0.003-0.001 8.694-3.891c0.263-0.116 0.572 0 0.688 0.263s0 0.572-0.263 0.689l-8.694 3.891c-0.063 0.030-0.137 0.047-0.215 0.047-0.063 0-0.123-0.011-0.178-0.032l0.004 0.001z"></path>
</symbol>
<symbol id="cross-red-clear" viewBox="0 0 32 32">
<path  style="fill: var(--color15, #db0837)" d="M32 3.222l-3.222-3.222-12.778 12.778-12.778-12.778-3.222 3.222 12.778 12.778-12.778 12.778 3.222 3.222 12.778-12.778 12.778 12.778 3.222-3.222-12.778-12.778 12.778-12.778z"></path>
</symbol>
<symbol id="cup-blue" viewBox="5 0 21 21">
<path style="fill: var(--color1, #00d7ff)" d="M25.585 1.469h-2.614c0.010-0.289 0.015-0.58 0.015-0.873 0-0.329-0.267-0.596-0.596-0.596v0h-12.78c-0.329 0-0.596 0.267-0.596 0.596v0c0 0.292 0.004 0.583 0.015 0.873h-2.614c-0.329 0-0.596 0.267-0.596 0.596v0c0 2.673 0.698 5.196 1.967 7.103 1.255 1.885 2.924 2.966 4.729 3.071 0.409 0.445 0.842 0.809 1.293 1.085v2.652h-1.002c-1.211 0.002-2.193 0.984-2.193 2.195v1.001h-0.044c-0.329 0-0.596 0.267-0.596 0.596s0.267 0.596 0.596 0.596v0h10.865c0.329 0 0.596-0.267 0.596-0.596s-0.267-0.596-0.596-0.596v0h-0.044v-1.001c-0.001-1.211-0.982-2.193-2.193-2.195h-1.001v-2.652c0.451-0.276 0.881-0.64 1.292-1.085 1.804-0.105 3.473-1.185 4.727-3.071 1.27-1.905 1.968-4.429 1.968-7.101 0-0.329-0.267-0.596-0.596-0.596v0zM8.778 8.509c-1.046-1.575-1.661-3.631-1.753-5.847h2.071c0.214 2.723 0.854 5.239 1.853 7.238 0.16 0.317 0.324 0.618 0.497 0.902-0.992-0.375-1.91-1.159-2.668-2.295zM23.222 8.509c-0.756 1.136-1.676 1.92-2.668 2.295 0.173-0.284 0.339-0.585 0.497-0.902 0.999-1.999 1.638-4.515 1.853-7.238h2.071c-0.093 2.215-0.708 4.271-1.754 5.844z"></path>
</symbol>
<symbol id="diskette-save" viewBox="0 0 32 32">
<path  style="fill: var(--color1, #00d7ff)" d="M24.89 0h-21.338c-1.971 0-3.552 1.6-3.552 3.555v24.893c0 1.962 1.59 3.552 3.552 3.552 0.001 0 0.002 0 0.003 0h24.893c1.952 0 3.552-1.6 3.552-3.555v-21.334l-7.11-7.11zM28.442 28.445h-24.883v-24.893h19.859l5.030 5.030v19.866zM16 16c-2.95 0-5.334 2.381-5.334 5.334 0 2.95 2.384 5.331 5.334 5.331s5.334-2.381 5.334-5.331c0-2.954-2.384-5.334-5.334-5.334zM5.334 5.334h16v7.11h-16v-7.11z"></path>
</symbol>
<symbol id="ellipse-blue-EASY" viewBox="0 0 32 32">
<path fill="#00d7ff" style="fill: var(--color1, #00d7ff)" d="M32 16c0-8.837-7.163-16-16-16s-16 7.163-16 16c0 8.837 7.163 16 16 16s16-7.163 16-16z"></path>
</symbol>
<symbol id="ellipse-green-NORMAL" viewBox="0 0 32 32">
<path fill="#24d40c" style="fill: var(--color4, #24d40c)" d="M32 16c0-8.837-7.163-16-16-16s-16 7.163-16 16c0 8.837 7.163 16 16 16s16-7.163 16-16z"></path>
</symbol>
<symbol id="ellipse-red-HARD" viewBox="0 0 32 32">
<path fill="#db0837" style="fill: var(--color15, #db0837)" d="M32 16c0-8.837-7.163-16-16-16s-16 7.163-16 16c0 8.837 7.163 16 16 16s16-7.163 16-16z"></path>
</symbol>
<symbol id="fire" viewBox="0 0 32 32">
<path fill="#ff851c" style="fill: var(--color2, #ff851c)" d="M10.88 32c-3.545-11.721 3.947-16 3.947-16-0.523 6.254 3.019 11.125 3.019 11.125 1.303-0.393 3.79-2.236 3.79-2.236 0 2.236-1.312 7.108-1.312 7.108s4.594-3.563 6.041-9.483c1.444-5.92-2.752-11.861-2.752-11.861 0.018 0.287 0.029 0.623 0.029 0.961 0 4.031-1.5 7.711-3.971 10.514l0.015-0.017c0.139-0.16 0.254-0.338 0.343-0.532 0.498-0.996 1.298-3.591 0.828-9.595-0.658-8.43-8.27-11.984-8.27-11.984 0.656 5.136-1.312 6.318-5.92 16.068-4.61 9.746 4.213 15.932 4.213 15.932z"></path>
</symbol>
<symbol id="logout" viewBox="0 0 32 32">
<path   d="M26.524 15.149h-16.535c-0.788 0-1.427 0.639-1.427 1.427s0.639 1.427 1.427 1.427h16.534l-1.846 1.846c-0.272 0.26-0.441 0.626-0.441 1.031 0 0.788 0.639 1.427 1.427 1.427 0.405 0 0.771-0.169 1.031-0.44l4.283-4.281c0.032-0.032 0.062-0.066 0.091-0.101l0.002-0.002 0.020-0.028c0.020-0.024 0.040-0.052 0.060-0.080l0.003-0.005 0.016-0.026c0.016-0.025 0.035-0.055 0.053-0.087l0.004-0.007 0.009-0.019c0.015-0.027 0.032-0.062 0.047-0.099l0.003-0.009 0.006-0.015c0.012-0.028 0.026-0.067 0.038-0.106l0.003-0.010c0.003-0.004 0.003-0.010 0.004-0.015 0.009-0.030 0.019-0.071 0.028-0.112l0.001-0.009c0.004-0.012 0.004-0.025 0.007-0.036 0.014-0.073 0.023-0.157 0.023-0.242 0-0.051-0.003-0.101-0.009-0.151l0.001 0.006c-0.003-0.035-0.009-0.068-0.015-0.102l-0.006-0.036c-0.010-0.050-0.020-0.091-0.032-0.131l0.003 0.010-0.006-0.015c-0.015-0.050-0.030-0.089-0.046-0.127l0.003 0.009-0.004-0.013c-0.019-0.045-0.036-0.081-0.055-0.115l0.004 0.008-0.009-0.019c-0.021-0.039-0.040-0.070-0.060-0.1l0.003 0.005-0.015-0.025c-0.023-0.033-0.044-0.061-0.066-0.088l0.002 0.003-0.020-0.026c-0.031-0.038-0.061-0.072-0.093-0.105l-4.28-4.279c-0.258-0.259-0.614-0.419-1.009-0.419s-0.751 0.16-1.009 0.419l-0 0c-0.259 0.258-0.418 0.615-0.418 1.009s0.16 0.751 0.418 1.009v0l1.844 1.844z"></path>
<path   d="M11.673 28.25c0.002 0 0.004 0 0.007 0 4.020 0 7.566-2.034 9.663-5.129l0.026-0.041c0.152-0.224 0.243-0.499 0.243-0.796 0-0.789-0.639-1.428-1.428-1.428-0.492 0-0.925 0.248-1.182 0.627l-0.003 0.005c-1.605 2.371-4.284 3.908-7.323 3.908-0.001 0-0.002 0-0.002 0h0c-4.869-0.006-8.814-3.952-8.819-8.82v-0c0-0.003 0-0.006 0-0.010 0-4.87 3.948-8.817 8.817-8.817 3.034 0 5.71 1.532 7.297 3.866l0.020 0.031c0.26 0.381 0.692 0.628 1.183 0.628 0.788 0 1.427-0.639 1.427-1.427 0-0.298-0.091-0.575-0.248-0.803l0.003 0.005c-2.126-3.122-5.664-5.145-9.674-5.145-0.002 0-0.004 0-0.006 0h0c-6.436-0.001-11.673 5.235-11.673 11.673 0 6.436 5.236 11.674 11.673 11.674z"></path>
</symbol>
<symbol id="star-blue" viewBox="5 1 21 21">
<path style="fill: var(--color1, #00d7ff)" d="M25.526 8.672l-5.746-0.543c-0.373-0.037-0.683-0.276-0.821-0.604l-0.002-0.007-2.059-4.989c-0.15-0.365-0.502-0.618-0.914-0.618s-0.765 0.253-0.912 0.611l-0.002 0.007-2.041 4.989c-0.137 0.337-0.449 0.577-0.82 0.609l-0.004 0-5.747 0.544c-0.857 0.083-1.202 1.153-0.561 1.729l4.331 3.804c0.209 0.182 0.34 0.448 0.34 0.744 0 0.081-0.010 0.159-0.028 0.234l0.001-0.007-1.301 5.336c-0.198 0.84 0.71 1.53 1.466 1.087l4.792-2.816c0.144-0.085 0.317-0.136 0.502-0.136s0.358 0.050 0.507 0.138l-0.005-0.003 4.792 2.816c0.144 0.086 0.318 0.137 0.503 0.137 0.547 0 0.991-0.444 0.991-0.991 0-0.082-0.010-0.162-0.029-0.239l0.001 0.007-1.284-5.337c-0.017-0.068-0.027-0.146-0.027-0.227 0-0.297 0.131-0.563 0.338-0.743l0.001-0.001 4.33-3.804c0.626-0.576 0.264-1.647-0.593-1.729z"></path>
</symbol>
<symbol id="star-gray" viewBox="0 0 32 32">
<path fill="#b9c3c8" style="fill: var(--color17, #b9c3c8)" d="M30.607 10.366l-8.811-0.832c-0.572-0.057-1.047-0.423-1.259-0.927l-0.004-0.010-3.157-7.65c-0.229-0.56-0.77-0.948-1.402-0.948s-1.172 0.387-1.398 0.937l-0.004 0.010-3.13 7.65c-0.211 0.517-0.688 0.885-1.257 0.934l-0.006 0-8.813 0.832c-1.314 0.128-1.843 1.771-0.86 2.654l6.641 5.833c0.32 0.278 0.521 0.686 0.521 1.141 0 0.123-0.015 0.244-0.043 0.358l0.002-0.010-1.995 8.181c-0.303 1.289 1.088 2.347 2.249 1.666l7.347-4.318c0.221-0.131 0.486-0.208 0.77-0.208s0.55 0.077 0.777 0.212l-0.007-0.004 7.349 4.318c0.22 0.132 0.486 0.21 0.77 0.21 0.839 0 1.519-0.68 1.519-1.519 0-0.127-0.015-0.25-0.045-0.367l0.002 0.010-1.969-8.181c-0.026-0.105-0.041-0.225-0.041-0.348 0-0.455 0.201-0.863 0.519-1.139l0.002-0.002 6.639-5.833c0.96-0.885 0.405-2.526-0.909-2.652z"></path>
</symbol>
</defs>
</svg>
